<?xml version="1.0" encoding="UTF-8" standalone="no"?>
<svg
   xmlns:dc="http://purl.org/dc/elements/1.1/"
   xmlns:cc="http://creativecommons.org/ns#"
   xmlns:rdf="http://www.w3.org/1999/02/22-rdf-syntax-ns#"
   xmlns:svg="http://www.w3.org/2000/svg"
   xmlns="http://www.w3.org/2000/svg"
   xmlns:sodipodi="http://sodipodi.sourceforge.net/DTD/sodipodi-0.dtd"
   xmlns:inkscape="http://www.inkscape.org/namespaces/inkscape"
   viewBox="0 0 22 22"
   id="svg2"
   version="1.1"
   inkscape:version="0.91 r13725"
   sodipodi:docname="xml-attribute-delete.svg">
  <metadata
     id="metadata12">
    <rdf:RDF>
      <cc:Work
         rdf:about="">
        <dc:format>image/svg+xml</dc:format>
        <dc:type
           rdf:resource="http://purl.org/dc/dcmitype/StillImage" />
      </cc:Work>
    </rdf:RDF>
  </metadata>
  <defs
     id="defs10" />
  <sodipodi:namedview
     pagecolor="#ffffff"
     bordercolor="#666666"
     borderopacity="1"
     objecttolerance="10"
     gridtolerance="10"
     guidetolerance="10"
     inkscape:pageopacity="0"
     inkscape:pageshadow="2"
     inkscape:window-width="1680"
     inkscape:window-height="1028"
     id="namedview8"
     showgrid="false"
     inkscape:zoom="10.727273"
     inkscape:cx="-19.669491"
     inkscape:cy="11"
     inkscape:window-x="1366"
     inkscape:window-y="22"
     inkscape:window-maximized="1"
     inkscape:current-layer="svg2" />
  <path
     style="color:#000000;clip-rule:nonzero;display:inline;overflow:visible;visibility:visible;opacity:1;isolation:auto;mix-blend-mode:normal;color-interpolation:sRGB;color-interpolation-filters:linearRGB;solid-color:#000000;solid-opacity:1;fill:#ffffff;fill-opacity:1;fill-rule:nonzero;stroke:none;stroke-width:1px;stroke-linecap:butt;stroke-linejoin:miter;stroke-miterlimit:4;stroke-dasharray:none;stroke-dashoffset:0;stroke-opacity:1;color-rendering:auto;image-rendering:auto;shape-rendering:auto;text-rendering:auto;enable-background:accumulate"
     d="M 9.4190116,17.863335 C 9.265198,17.766205 8.0172071,16.560033 6.6456983,15.182955 3.9548289,12.48116 3.8793109,12.377988 4.0671309,11.660183 4.1518509,11.336412 4.6433237,10.805374 7.4916801,7.95997 9.5164487,5.9372996 10.963174,4.5647908 11.190198,4.4511854 12.051679,4.02009 12.459453,3.9643636 14.752485,3.9643636 c 2.356714,0 2.574864,0.03684 3.009747,0.5082677 l 0.233051,0.2526349 0,2.6725148 0,2.672515 -0.270723,0.552077 c -0.157587,0.321362 -0.556897,0.851611 -0.955508,1.268832 -0.674464,0.705953 -0.692973,0.717498 -1.228132,0.766025 -1.558024,0.141276 -3.019746,1.592262 -3.159779,3.136573 -0.05059,0.557887 -0.05412,0.563545 -0.815836,1.307038 -0.420765,0.410699 -0.879285,0.790165 -1.018932,0.84326 -0.38512,0.146422 -0.8165393,0.115514 -1.1273614,-0.08077 z M 15.738812,8.190136 C 16.352122,7.8766767 16.56432,6.8994675 16.15195,6.2875532 16.024257,6.0980688 15.772747,5.903696 15.519386,5.7986932 15.157023,5.6485156 15.042087,5.6396553 14.68915,5.7346913 c -1.287135,0.3465895 -1.386075,2.1210576 -0.14302,2.565041 0.396288,0.1415426 0.768168,0.1073702 1.192682,-0.1095963 z"
     id="path4153"
     inkscape:connector-curvature="0" />
  <path
     inkscape:connector-curvature="0"
     style="fill:#da4453;fill-opacity:1;stroke:none"
     d="M 15.207499,11.701001 A 3.6484996,3.6485042 0 0 0 11.559,15.349501 3.6484996,3.6485042 0 0 0 15.207499,18.998 3.6484996,3.6485042 0 0 0 18.856,15.349501 a 3.6484996,3.6485042 0 0 0 -3.648501,-3.6485 z m -1.501798,1.82425 1.501798,1.5018 1.5018,-1.5018 0.322451,0.322451 -1.5018,1.501799 1.5018,1.5018 -0.322451,0.322449 -1.5018,-1.501798 -1.501798,1.501798 -0.322451,-0.322449 1.5018,-1.5018 -1.5018,-1.501799 0.322451,-0.322451 z"
     class="ColorScheme-NegativeText"
     id="path6-8" />
</svg>
